<svg width="24" height="25" viewBox="0 0 24 25" fill="none" xmlns="http://www.w3.org/2000/svg">
<g id="headphones">
<path id="Vector" d="M3 18.5V12.5C3 10.1131 3.94821 7.82387 5.63604 6.13604C7.32387 4.44821 9.61305 3.5 12 3.5C14.3869 3.5 16.6761 4.44821 18.364 6.13604C20.0518 7.82387 21 10.1131 21 12.5V18.5" stroke="black" stroke-width="2" stroke-linecap="round" stroke-linejoin="round"/>
<path id="Vector_2" d="M21 19.5C21 20.0304 20.7893 20.5391 20.4142 20.9142C20.0391 21.2893 19.5304 21.5 19 21.5H18C17.4696 21.5 16.9609 21.2893 16.5858 20.9142C16.2107 20.5391 16 20.0304 16 19.5V16.5C16 15.9696 16.2107 15.4609 16.5858 15.0858C16.9609 14.7107 17.4696 14.5 18 14.5H21V19.5ZM3 19.5C3 20.0304 3.21071 20.5391 3.58579 20.9142C3.96086 21.2893 4.46957 21.5 5 21.5H6C6.53043 21.5 7.03914 21.2893 7.41421 20.9142C7.78929 20.5391 8 20.0304 8 19.5V16.5C8 15.9696 7.78929 15.4609 7.41421 15.0858C7.03914 14.7107 6.53043 14.5 6 14.5H3V19.5Z" stroke="black" stroke-width="2" stroke-linecap="round" stroke-linejoin="round"/>
</g>
</svg>
