<svg width="21" height="20" viewBox="0 0 21 20" fill="none" xmlns="http://www.w3.org/2000/svg">
<g id="Group 2915">
<g id="&#236;&#157;&#184;&#236;&#138;&#164;&#237;&#131;&#128;&#234;&#183;&#184;&#235;&#158;&#168;">
<path id="Vector" d="M10.0625 1.802C12.7325 1.802 13.0489 1.812 14.1033 1.8604C15.0781 1.9048 15.6077 2.0676 15.9601 2.2048C16.4269 2.386 16.7601 2.6028 17.1101 2.9528C17.4601 3.3028 17.6769 3.636 17.8581 4.1028C17.9949 4.4552 18.1581 4.9848 18.2025 5.9596C18.2505 7.014 18.2609 7.3304 18.2609 10.0004C18.2609 12.6704 18.2509 12.9868 18.2025 14.0412C18.1581 15.016 17.9953 15.5456 17.8581 15.898C17.6769 16.3648 17.4601 16.698 17.1101 17.048C16.7601 17.398 16.4269 17.6148 15.9601 17.796C15.6077 17.9328 15.0781 18.096 14.1033 18.1404C13.0489 18.1884 12.7329 18.1988 10.0625 18.1988C7.3921 18.1988 7.0761 18.1888 6.0217 18.1404C5.0469 18.096 4.5173 17.9332 4.1649 17.796C3.6981 17.6148 3.3649 17.398 3.0149 17.048C2.6649 16.698 2.4481 16.3648 2.2669 15.898C2.1301 15.5456 1.9669 15.016 1.9225 14.0412C1.8745 12.9868 1.8641 12.6704 1.8641 10.0004C1.8641 7.3304 1.8741 7.014 1.9225 5.9596C1.9669 4.9848 2.1297 4.4552 2.2669 4.1028C2.4481 3.636 2.6649 3.3028 3.0149 2.9528C3.3649 2.6028 3.6981 2.386 4.1649 2.2048C4.5173 2.068 5.0469 1.9048 6.0217 1.8604C7.0761 1.8124 7.3925 1.802 10.0625 1.802ZM10.0625 0C7.3465 0 7.0061 0.0116 5.9397 0.06C4.8753 0.1084 4.1485 0.2776 3.5121 0.5248C2.8545 0.7804 2.2969 1.1224 1.7409 1.6784C1.1849 2.2344 0.8429 2.792 0.5873 3.4496C0.3401 4.0856 0.1709 4.8128 0.1225 5.8772C0.0737 6.944 0.0625 7.2844 0.0625 10C0.0625 12.7156 0.0741 13.0564 0.1225 14.1228C0.1709 15.1872 0.3401 15.914 0.5873 16.5504C0.8429 17.208 1.1849 17.7656 1.7409 18.3216C2.2969 18.8776 2.8545 19.2196 3.5121 19.4752C4.1481 19.7224 4.8753 19.8916 5.9397 19.94C7.0061 19.9888 7.3469 20 10.0625 20C12.7781 20 13.1189 19.9884 14.1853 19.94C15.2497 19.8916 15.9765 19.7224 16.6129 19.4752C17.2705 19.2196 17.8281 18.8776 18.3841 18.3216C18.9401 17.7656 19.2821 17.208 19.5377 16.5504C19.7849 15.9144 19.9541 15.1872 20.0025 14.1228C20.0513 13.056 20.0625 12.7156 20.0625 10C20.0625 7.2844 20.0509 6.9436 20.0025 5.8772C19.9541 4.8128 19.7849 4.086 19.5377 3.4496C19.2821 2.792 18.9401 2.2344 18.3841 1.6784C17.8281 1.1224 17.2705 0.7804 16.6129 0.5248C15.9769 0.2776 15.2497 0.1084 14.1853 0.06C13.1185 0.0112 12.7781 0 10.0625 0Z" fill="#625C5C"/>
<path id="Vector_2" d="M10.0649 4.86719C7.22889 4.86719 4.92969 7.16639 4.92969 10.0024C4.92969 12.8384 7.22889 15.1376 10.0649 15.1376C12.9009 15.1376 15.2001 12.8384 15.2001 10.0024C15.2001 7.16639 12.9009 4.86719 10.0649 4.86719ZM10.0649 13.3356C8.22409 13.3356 6.73169 11.8432 6.73169 10.0024C6.73169 8.16159 8.22409 6.66919 10.0649 6.66919C11.9057 6.66919 13.3981 8.16159 13.3981 10.0024C13.3981 11.8432 11.9057 13.3356 10.0649 13.3356Z" fill="#625C5C"/>
<path id="Vector_3" d="M15.4031 5.86094C16.0659 5.86094 16.6031 5.32368 16.6031 4.66094C16.6031 3.9982 16.0659 3.46094 15.4031 3.46094C14.7404 3.46094 14.2031 3.9982 14.2031 4.66094C14.2031 5.32368 14.7404 5.86094 15.4031 5.86094Z" fill="#625C5C"/>
</g>
</g>
</svg>
