<svg width="114" height="33" viewBox="0 0 114 33" fill="none" xmlns="http://www.w3.org/2000/svg">
<g clip-path="url(#clip0_147_426)">
<path fill-rule="evenodd" clip-rule="evenodd" d="M43.6162 22.6697V3.01953H34.2969V22.6748C37.405 22.6748 40.508 22.6748 43.6162 22.6697Z" fill="black"/>
<path fill-rule="evenodd" clip-rule="evenodd" d="M15.8449 22.6399C21.3959 22.6551 26.9468 22.6703 32.4978 22.6754V13.5246C32.4978 13.0734 32.3606 12.6019 31.9493 12.3585C31.6344 12.176 31.2332 12.1709 30.9031 12.323C26.2815 14.4979 21.66 16.6627 17.0384 18.8275C16.1953 19.2483 15.8398 19.9225 15.8398 20.8554V22.6298L15.8449 22.6399Z" fill="black"/>
<path fill-rule="evenodd" clip-rule="evenodd" d="M17.3419 16.7128C21.6486 14.69 25.9655 12.6824 30.2671 10.6494C31.5367 10.0461 32.3798 9.21472 32.4966 7.74957V3.01953H15.8438V15.6279C15.8691 16.505 16.4938 17.017 17.3419 16.7077V16.7128Z" fill="black"/>
<path fill-rule="evenodd" clip-rule="evenodd" d="M14.0365 22.6724V15.0577C13.9248 13.552 13.4982 13.1312 12.2997 12.3759L0.0703125 5.35938V22.6775C4.72742 22.6775 9.37944 22.6826 14.0365 22.6724Z" fill="black"/>
<path fill-rule="evenodd" clip-rule="evenodd" d="M14.0365 3.01953H0.0703125V3.26288C4.27034 5.67099 8.47037 8.08417 12.6755 10.4974C13.3712 10.8066 14.0365 10.4112 14.0365 9.6355V3.01953Z" fill="black"/>
<path fill-rule="evenodd" clip-rule="evenodd" d="M57.5123 26.3251V19.9474H52.0274V27.4506C52.0274 28.4544 52.3372 29.3821 53.0533 30.102C53.7694 30.8219 54.7038 31.1362 55.7094 31.1362H79.8938V7.78517H85.0791V2.96895H78.096C77.0853 2.96895 76.161 3.2782 75.4399 3.9981C74.7187 4.71293 74.4089 5.64068 74.4089 6.64956V26.32H57.5174L57.5123 26.3251ZM104.845 14.2186C106.023 14.2186 107.151 14.4417 108.187 14.8473V7.79024H99.9392V2.96895H109.985C110.995 2.96895 111.92 3.2782 112.641 3.9981C113.357 4.71293 113.672 5.64068 113.672 6.64956V19.116H105.099C105.013 19.1109 104.926 19.1058 104.845 19.1058C104.749 19.1058 104.657 19.1058 104.561 19.116H104.515C102.316 19.2883 100.589 21.1185 100.589 23.3542C100.589 25.7015 102.494 27.6027 104.845 27.6027C107.197 27.6027 109.101 25.7015 109.101 23.3542C109.101 22.4518 108.817 21.6153 108.339 20.9259H113.677C113.89 21.6965 114.002 22.5127 114.002 23.3542C114.002 28.4037 109.903 32.4949 104.845 32.4949C99.7868 32.4949 95.6884 28.4037 95.6884 23.3542C95.6884 21.4125 96.2927 19.6179 97.3288 18.1375C97.2729 18.1172 97.217 18.0919 97.1663 18.0716C95.6934 17.4734 94.4339 16.6217 93.4893 15.4455C92.8189 16.5608 91.8692 17.4531 90.6047 18.0513C88.9033 18.8523 87.1055 19.2123 85.2264 19.116L84.2818 19.0703V14.2592L85.3229 14.3048C86.882 14.3707 88.2482 13.9651 89.1623 12.6521C90.2034 11.1565 90.5336 9.31115 90.5336 7.51648V2.96895H96.0236V7.45057C96.0236 9.38213 96.4908 11.2022 97.8163 12.6521C99.0758 14.0311 101.432 14.3302 103.372 14.3352C103.855 14.2541 104.353 14.2136 104.855 14.2136L104.845 14.2186ZM58.6804 2.96895V0.5H64.1704V2.90811C64.2364 2.92839 64.3024 2.94867 64.3685 2.96895H72.0524V7.78517H69.6198C70.0718 8.8346 70.3206 9.99049 70.3206 11.2022C70.3206 15.993 66.4304 19.8764 61.6311 19.8764C56.8318 19.8764 52.9466 15.993 52.9466 11.2022C52.9466 10.6141 53.0076 10.0361 53.1193 9.47845H58.5788C58.2893 9.98542 58.1268 10.5735 58.1268 11.2022C58.1268 13.1388 59.6961 14.7053 61.6362 14.7053C63.5762 14.7053 65.1455 13.1388 65.1455 11.2022C65.1455 9.48352 63.9012 8.0488 62.2608 7.75475L59.041 7.73447H53.6678L53.6779 7.71419H52.6165H51.6211V2.96895H58.6804Z" fill="black"/>
<path fill-rule="evenodd" clip-rule="evenodd" d="M43.3613 31.4479L43.4477 30.9257C43.2547 30.9511 43.0363 30.9815 42.7875 31.0069C42.5386 31.0322 42.2897 31.0576 42.0358 31.0778C41.7819 31.0981 41.5381 31.1133 41.3045 31.1235C41.0709 31.1336 40.8677 31.1387 40.7001 31.1336C40.6087 31.1336 40.5529 31.1184 40.5275 31.0981C40.497 31.0778 40.4868 31.0271 40.4868 30.941V30.1704C40.4868 30.0943 40.4868 30.0081 40.497 29.9017C40.5071 29.7952 40.5173 29.7141 40.5275 29.6634C40.4614 29.6482 40.3751 29.638 40.2685 29.6228C40.1669 29.6076 40.0602 29.5975 39.9485 29.5823C39.8419 29.5721 39.7352 29.5569 39.6336 29.5417C39.5321 29.5265 39.4457 29.5164 39.3797 29.5113L39.2629 29.7597C39.4 29.7952 39.5067 29.8256 39.5879 29.856C39.6692 29.8814 39.7301 29.9169 39.7657 29.9574C39.8063 29.998 39.8317 30.0487 39.8368 30.1095C39.8469 30.1704 39.852 30.2464 39.852 30.3427V31.164C39.852 31.2603 39.8876 31.3465 39.9536 31.4175C40.0196 31.4885 40.1313 31.5189 40.2938 31.5088C40.4919 31.4936 40.7154 31.4834 40.9541 31.4733C41.1978 31.4631 41.4518 31.4581 41.7159 31.453C41.98 31.4479 42.2542 31.4479 42.5335 31.4479C42.8129 31.4479 43.0871 31.4479 43.3613 31.453V31.4479ZM41.6651 25.273C41.7717 25.2882 41.8885 25.3034 42.0155 25.3237C42.1476 25.344 42.2745 25.3643 42.4015 25.3896C42.5284 25.415 42.6554 25.4353 42.7722 25.4606C42.889 25.4809 42.9957 25.5012 43.082 25.5113C43.0719 25.5519 43.0617 25.6026 43.0566 25.6583C43.0515 25.7192 43.0414 25.7749 43.0312 25.8358C43.0211 25.8966 43.016 25.9524 43.0109 25.998C43.0109 26.0487 43.0058 26.0842 43.0058 26.1045V28.832C43.0058 28.9334 43.0058 29.0398 42.9957 29.1564C42.9906 29.273 42.9804 29.3896 42.9703 29.5062C42.9652 29.6228 42.95 29.7344 42.9347 29.8358C42.9195 29.9372 42.9043 30.0284 42.8941 30.1045L42.437 30.1754C42.4269 30.1197 42.4218 30.0487 42.4167 29.9574C42.4167 29.8662 42.4066 29.7648 42.4015 29.6532C42.3964 29.5468 42.3913 29.4353 42.3913 29.3288C42.3913 29.2173 42.3913 29.126 42.3913 29.0449V26.0892C42.3913 25.9524 42.3253 25.8408 42.1933 25.7546C42.0612 25.6685 41.8479 25.5924 41.5533 25.5164L41.6752 25.268L41.6651 25.273ZM40.6341 27.5493C40.6341 27.4175 40.6087 27.3009 40.563 27.1894C40.5173 27.0778 40.4513 26.9815 40.3751 26.9004C40.2938 26.8193 40.2024 26.7534 40.0958 26.7077C39.9891 26.6621 39.8774 26.6368 39.7555 26.6368C39.6336 26.6368 39.5168 26.6621 39.4051 26.7077C39.2984 26.7534 39.2019 26.8193 39.1207 26.9004C39.0394 26.9815 38.9785 27.0778 38.9328 27.1894C38.8871 27.3009 38.8617 27.4175 38.8617 27.5493C38.8617 27.6811 38.8871 27.8028 38.9328 27.9143C38.9785 28.0259 39.0445 28.1222 39.1207 28.1982C39.2019 28.2794 39.2934 28.3402 39.4051 28.3858C39.5117 28.4314 39.6285 28.4517 39.7555 28.4517C39.8825 28.4517 39.9942 28.4314 40.1009 28.3858C40.2075 28.3402 40.2989 28.2794 40.3802 28.1982C40.4614 28.1171 40.5224 28.0208 40.5681 27.9143C40.6138 27.8028 40.6341 27.6811 40.6341 27.5493ZM40.0399 26.3478C40.2278 26.3731 40.3954 26.4238 40.5478 26.4948C40.7001 26.5658 40.8271 26.6571 40.9388 26.7635C41.0506 26.87 41.1369 26.9967 41.1978 27.1387C41.2588 27.2806 41.2893 27.4276 41.2893 27.5797C41.2893 27.7572 41.2486 27.9245 41.1725 28.0766C41.0963 28.2287 40.9896 28.3605 40.8474 28.472C40.7103 28.5835 40.5478 28.6697 40.3548 28.7356C40.1669 28.8015 39.9637 28.832 39.7454 28.832C39.527 28.832 39.3188 28.8015 39.1308 28.7356C38.9429 28.6697 38.7804 28.5835 38.6433 28.472C38.5062 28.3605 38.3995 28.2287 38.3233 28.0766C38.2472 27.9245 38.2116 27.7572 38.2116 27.5797C38.2116 27.4124 38.2472 27.2603 38.3132 27.1184C38.3792 26.9714 38.4706 26.8497 38.5925 26.7382C38.7093 26.6317 38.8515 26.5404 39.014 26.4695C39.1816 26.3985 39.3594 26.3529 39.5524 26.3377C39.5422 26.2819 39.5168 26.2363 39.4813 26.2008C39.4406 26.1653 39.3695 26.1349 39.268 26.1045L39.3797 25.9118C39.4305 25.9219 39.4863 25.9321 39.5524 25.9422C39.6184 25.9574 39.6844 25.9726 39.7555 25.9878C39.8266 26.0031 39.8926 26.0183 39.9587 26.0335C40.0247 26.0436 40.0856 26.0588 40.1364 26.074C40.1212 26.1095 40.1059 26.1501 40.0907 26.1957C40.0755 26.2413 40.0552 26.292 40.045 26.3579L40.0399 26.3478ZM36.3224 29.7901V28.4162H37.3228C37.4295 28.4162 37.526 28.4162 37.6022 28.4213L37.6631 27.8789C37.5616 27.8991 37.4498 27.9194 37.3381 27.9346C37.2213 27.9498 37.1045 27.965 36.9877 27.9752C36.8709 27.9904 36.754 28.0005 36.6423 28.0107C36.5306 28.0208 36.4239 28.0309 36.3274 28.0309V26.0994C36.3274 26.0994 36.3274 26.0436 36.3325 25.9929C36.3376 25.9473 36.3427 25.8915 36.3478 25.8307C36.3528 25.7699 36.363 25.709 36.3731 25.6532C36.3833 25.5975 36.3935 25.5468 36.3985 25.5062C36.3122 25.491 36.2157 25.4758 36.0989 25.4555C35.9821 25.4353 35.8602 25.4099 35.7332 25.3846C35.6063 25.3592 35.4742 25.3389 35.3473 25.3186C35.2152 25.2984 35.0933 25.2832 34.9816 25.268L34.88 25.5164C35.1746 25.5873 35.3828 25.6685 35.5098 25.7546C35.6367 25.8408 35.6977 25.9524 35.6977 26.0892V30.2616C35.6977 30.3884 35.6977 30.5252 35.6977 30.6723C35.6977 30.8142 35.7028 30.9562 35.7129 31.088C35.718 31.2249 35.7231 31.3516 35.7332 31.4682C35.7383 31.5899 35.7485 31.6862 35.7586 31.7521L36.2157 31.6913C36.236 31.5949 36.2513 31.4631 36.2614 31.3009C36.2767 31.1387 36.2868 30.9663 36.2919 30.7889C36.302 30.6114 36.3071 30.4289 36.3122 30.2515C36.3173 30.074 36.3173 29.9118 36.3173 29.7749L36.3224 29.7901ZM33.8288 28.3148C34.0624 28.5075 34.3112 28.7001 34.5804 28.9029C34.8445 29.1057 35.1289 29.2984 35.4285 29.4859L34.941 29.9169C34.7124 29.6786 34.4941 29.4505 34.2808 29.2325C34.0674 29.0145 33.844 28.7914 33.6053 28.5582C33.3107 28.8827 32.9908 29.1767 32.6454 29.4454C32.295 29.709 31.9344 29.9422 31.5586 30.145L31.3859 29.9372C31.6906 29.7445 31.9852 29.5265 32.2696 29.2832C32.5489 29.0347 32.8079 28.7762 33.0416 28.5024C33.2752 28.2287 33.4783 27.9498 33.6459 27.6558C33.8186 27.3668 33.9456 27.0829 34.0268 26.799C33.9608 26.799 33.8795 26.799 33.783 26.8041C33.6866 26.8041 33.585 26.8142 33.4733 26.8193C33.3666 26.8193 33.265 26.8294 33.1685 26.8345C33.072 26.8396 32.9908 26.8396 32.9298 26.8396C32.879 26.8396 32.813 26.8396 32.7368 26.8548C32.6556 26.8649 32.5693 26.87 32.4778 26.8801C32.3864 26.8903 32.295 26.9004 32.2036 26.9105C32.1122 26.9207 32.0258 26.9359 31.9497 26.946L31.6043 26.4036C31.6602 26.4086 31.7364 26.4188 31.8227 26.434C31.909 26.4441 32.0055 26.4543 32.102 26.4644C32.1985 26.4745 32.295 26.4796 32.3915 26.4897C32.488 26.4948 32.5743 26.4999 32.6505 26.4999C32.8079 26.4999 32.9806 26.4999 33.1635 26.4897C33.3463 26.4897 33.5291 26.4796 33.7119 26.4644C33.8897 26.4543 34.0624 26.434 34.23 26.4137C34.3925 26.3934 34.5398 26.3681 34.6616 26.3427L34.875 26.5354C34.7581 26.8649 34.6159 27.1792 34.4382 27.4733C34.2604 27.7724 34.0573 28.0512 33.8288 28.325V28.3148ZM29.6998 26.0943C29.6998 25.9574 29.6338 25.8459 29.5018 25.7597C29.3697 25.6735 29.1564 25.5975 28.8669 25.5214L28.9787 25.273C29.0853 25.2882 29.2021 25.3034 29.3342 25.3237C29.4611 25.344 29.5932 25.3643 29.7201 25.3896C29.8471 25.415 29.9741 25.4353 30.0909 25.4606C30.2077 25.4809 30.3093 25.5012 30.4007 25.5113C30.3905 25.5519 30.3854 25.6026 30.3753 25.6583C30.3651 25.7141 30.36 25.7749 30.3499 25.8358C30.3448 25.8966 30.3397 25.9524 30.3347 25.998C30.3296 26.0487 30.3245 26.0842 30.3245 26.1045V29.7901C30.3245 29.927 30.3245 30.0842 30.3143 30.2667C30.3093 30.4441 30.2991 30.6266 30.2889 30.8041C30.2788 30.9815 30.2636 31.1539 30.2534 31.3161C30.2432 31.4783 30.2229 31.6051 30.2077 31.7065L29.7608 31.7673C29.7506 31.6963 29.7455 31.6 29.7354 31.4834C29.7303 31.3668 29.7201 31.235 29.7151 31.1032C29.71 30.9663 29.7049 30.8294 29.6998 30.6824C29.6998 30.5404 29.6998 30.4036 29.6998 30.2718V28.9891C29.4967 29.0702 29.258 29.1513 28.9939 29.2375C28.7298 29.3237 28.4556 29.4048 28.1762 29.4809C27.8969 29.5569 27.6227 29.6228 27.3586 29.6887C27.0894 29.7496 26.8558 29.7952 26.6577 29.8205C26.4292 29.856 26.2667 29.8307 26.1651 29.7394C26.0635 29.6482 26.0127 29.4961 26.0127 29.2832V27.3465C26.0127 27.2654 26.0077 27.1944 25.9924 27.1387C25.9823 27.0778 25.9518 27.0271 25.9112 26.9866C25.8705 26.946 25.8147 26.9055 25.7334 26.875C25.6572 26.8396 25.5506 26.8091 25.4236 26.7737L25.5354 26.5252C25.7893 26.5658 26.0584 26.5911 26.3429 26.6013C26.6273 26.6114 26.9167 26.6114 27.2011 26.6013C27.4855 26.5911 27.7699 26.5709 28.0391 26.5404C28.3134 26.51 28.5622 26.4796 28.7806 26.4391L28.6739 26.9511C28.2626 26.9308 27.8868 26.9308 27.5465 26.9359C27.2062 26.946 26.9015 26.9612 26.6374 26.9815V29.1513C26.6374 29.2274 26.6476 29.2781 26.673 29.3034C26.6984 29.3288 26.7339 29.3389 26.7898 29.3339C26.9472 29.3237 27.1453 29.2933 27.384 29.2578C27.6227 29.2223 27.8766 29.1716 28.1407 29.1159C28.4048 29.0601 28.679 28.9942 28.9482 28.9232C29.2224 28.8522 29.4713 28.7813 29.6897 28.7052V26.0994L29.6998 26.0943ZM23.4531 30.4847C23.4531 30.6064 23.4328 30.7128 23.3922 30.8142C23.3515 30.9156 23.2906 31.0018 23.2195 31.0728C23.1484 31.1488 23.0621 31.2046 22.9605 31.2451C22.8589 31.2857 22.7523 31.306 22.6456 31.306C22.539 31.306 22.4374 31.2857 22.3358 31.2451C22.2342 31.2046 22.1479 31.1437 22.0768 31.0728C22.0057 31.0018 21.9448 30.9105 21.8991 30.8142C21.8533 30.7128 21.833 30.6013 21.833 30.4847C21.833 30.3681 21.8533 30.2616 21.8991 30.1552C21.9448 30.0538 22.0006 29.9676 22.0768 29.8915C22.153 29.8155 22.2393 29.7597 22.3358 29.7192C22.4374 29.6786 22.539 29.6583 22.6456 29.6583C22.7523 29.6583 22.8589 29.6786 22.9605 29.7192C23.057 29.7597 23.1433 29.8205 23.2144 29.8915C23.2906 29.9625 23.3465 30.0538 23.3922 30.1552C23.4379 30.2565 23.4582 30.3681 23.4582 30.4847H23.4531ZM22.93 29.3795C22.9452 29.3237 22.9605 29.268 22.9757 29.2173C22.991 29.1716 23.0113 29.126 23.0214 29.0905C22.9706 29.0753 22.9097 29.0601 22.8386 29.0449C22.7726 29.0297 22.7015 29.0145 22.6304 28.9993C22.5593 28.984 22.4933 28.9739 22.4272 28.9587C22.3612 28.9435 22.3053 28.9334 22.2596 28.9232L22.1479 29.1209C22.2495 29.1513 22.3206 29.1818 22.3561 29.2173C22.3968 29.2477 22.4171 29.2984 22.4272 29.3592C22.2444 29.3744 22.0768 29.42 21.9295 29.4859C21.7772 29.5519 21.6451 29.638 21.5385 29.7344C21.4267 29.8358 21.3404 29.9524 21.2845 30.0842C21.2236 30.216 21.1931 30.3579 21.1931 30.51C21.1931 30.6723 21.2287 30.8244 21.3049 30.9714C21.376 31.1133 21.4775 31.235 21.6096 31.3415C21.7416 31.4429 21.8889 31.529 22.0717 31.5899C22.2495 31.6507 22.4475 31.6811 22.6558 31.6811C22.864 31.6811 23.057 31.6507 23.2398 31.5899C23.4176 31.529 23.575 31.4479 23.707 31.3415C23.8391 31.235 23.9407 31.1133 24.0118 30.9714C24.0829 30.8294 24.1235 30.6773 24.1235 30.51C24.1235 30.363 24.093 30.2211 24.0372 30.0943C23.9813 29.9625 23.9 29.8459 23.7934 29.7445C23.6918 29.6431 23.5648 29.562 23.4176 29.4961C23.2703 29.4302 23.1128 29.3846 22.9402 29.3643L22.93 29.3795ZM22.0463 27.1184C21.8838 27.3719 21.701 27.6152 21.4928 27.8484C21.2845 28.0816 21.056 28.3047 20.8122 28.5075C20.5685 28.7154 20.3094 28.9029 20.0352 29.0804C19.7609 29.2578 19.4816 29.4099 19.1972 29.5417L19.0398 29.3339C19.3191 29.1818 19.5934 29.0043 19.8574 28.7914C20.1266 28.5835 20.3704 28.3554 20.5989 28.1171C20.8275 27.8789 21.0306 27.6254 21.2134 27.3617C21.3912 27.0981 21.5334 26.8396 21.635 26.5861C21.5385 26.5861 21.4369 26.5861 21.3302 26.5861C21.2236 26.5861 21.1271 26.5911 21.0357 26.5962C20.9443 26.6013 20.8579 26.6064 20.7818 26.6114C20.7056 26.6114 20.6446 26.6216 20.5989 26.6266C20.5532 26.6266 20.4923 26.6317 20.4161 26.6368C20.3399 26.6368 20.2536 26.6469 20.1622 26.6621C20.0707 26.6723 19.9793 26.6824 19.8879 26.6976C19.7965 26.7077 19.7152 26.723 19.6441 26.7382L19.2886 26.1906C19.3394 26.2008 19.4054 26.2058 19.4969 26.216C19.5883 26.2261 19.6848 26.2363 19.7863 26.2413C19.8879 26.2515 19.9895 26.2565 20.0911 26.2616C20.1926 26.2667 20.279 26.2718 20.3552 26.2718C20.538 26.2718 20.7208 26.2667 20.9087 26.2565C21.0966 26.2464 21.2744 26.2312 21.4471 26.216C21.6197 26.2008 21.7721 26.1856 21.9092 26.1602C22.0463 26.1399 22.153 26.1197 22.2342 26.1045L22.4729 26.2565C22.4323 26.3579 22.3917 26.4593 22.3409 26.5607C22.2952 26.6621 22.2393 26.7635 22.1784 26.8649C22.2749 26.875 22.3815 26.8801 22.4933 26.8903C22.605 26.9004 22.7015 26.9004 22.7878 26.8953C22.8995 26.8953 23.0214 26.8852 23.1535 26.8801C23.2855 26.8801 23.4125 26.87 23.5293 26.8598V26.0791C23.5293 25.9422 23.4633 25.8307 23.3312 25.7445C23.1992 25.6583 22.9859 25.5823 22.6964 25.5062L22.8183 25.2578C22.9249 25.273 23.0417 25.2882 23.1687 25.3085C23.2957 25.3288 23.4277 25.3491 23.5547 25.3744C23.6817 25.3998 23.8086 25.42 23.9254 25.4454C24.0422 25.4657 24.1438 25.4859 24.2352 25.4961C24.2251 25.5366 24.2149 25.5873 24.2098 25.6431C24.1997 25.6989 24.1946 25.7597 24.1844 25.8205C24.1743 25.8814 24.1692 25.9372 24.1641 25.9828C24.159 26.0335 24.159 26.069 24.159 26.0892V28.183C24.159 28.2591 24.159 28.3554 24.1489 28.4669C24.1438 28.5734 24.1336 28.6849 24.1235 28.7914C24.1133 28.8979 24.0981 28.9993 24.0879 29.0956C24.0727 29.1919 24.0625 29.2629 24.0473 29.3186L23.5852 29.3947C23.575 29.344 23.5699 29.2882 23.5648 29.2122C23.5648 29.1412 23.5547 29.0702 23.5496 28.9942C23.5445 28.9181 23.5394 28.8421 23.5344 28.766C23.5344 28.69 23.5344 28.619 23.5344 28.5582V28.3706C23.2601 28.3808 22.9706 28.396 22.6659 28.4162C22.3612 28.4416 22.087 28.4669 21.8432 28.5024L21.6248 27.9904C21.6705 28.0005 21.7365 28.0056 21.8076 28.0157C21.8787 28.0259 21.96 28.0309 22.0413 28.036C22.1225 28.0411 22.2038 28.0462 22.2901 28.0512C22.3714 28.0512 22.4475 28.0512 22.5136 28.0512C22.6405 28.0462 22.803 28.0411 23.0011 28.0411C23.1941 28.0411 23.3769 28.036 23.5394 28.0259V27.2096C23.2855 27.2198 23.0417 27.235 22.803 27.2553C22.5644 27.2756 22.346 27.306 22.1479 27.3415L22.0463 27.1083V27.1184ZM17.9783 31.4885L18.0647 30.9612C17.8717 30.9917 17.6482 31.017 17.3841 31.0423C17.1201 31.0626 16.8509 31.0829 16.5766 31.0981C16.3024 31.1133 16.0383 31.1235 15.7844 31.1285C15.5304 31.1387 15.3222 31.1387 15.1597 31.1285C15.0581 31.1285 14.9921 31.1133 14.9667 31.093C14.9413 31.0728 14.9261 31.0221 14.9261 30.9359V30.5354C14.9261 30.4543 14.9261 30.3579 14.9413 30.2565C14.9515 30.1501 14.9616 30.074 14.9667 30.0233C14.9007 30.0132 14.8144 30.0031 14.7128 29.9828C14.6112 29.9676 14.5046 29.9524 14.3979 29.9422C14.2913 29.9321 14.1846 29.9169 14.078 29.9017C13.9764 29.8865 13.8951 29.8763 13.8342 29.8662L13.7225 30.1146C13.8545 30.1501 13.9612 30.1805 14.0373 30.2109C14.1135 30.2363 14.1745 30.2718 14.2151 30.3123C14.2557 30.3529 14.276 30.4036 14.2862 30.4593C14.2963 30.5202 14.3014 30.5962 14.3014 30.6976V31.1539C14.3014 31.2502 14.337 31.3364 14.403 31.4074C14.469 31.4783 14.5858 31.5088 14.7433 31.4986C14.9413 31.4834 15.1648 31.4733 15.4238 31.4682C15.6828 31.4631 15.952 31.4581 16.2415 31.453C16.5259 31.453 16.8204 31.453 17.115 31.453C17.4146 31.4581 17.699 31.4682 17.9733 31.4834L17.9783 31.4885ZM16.6376 26.6875L16.7188 26.2008C16.5005 26.2413 16.2465 26.2718 15.9621 26.3022C15.6777 26.3275 15.3882 26.3478 15.1038 26.3681C14.8194 26.3833 14.5503 26.3934 14.3014 26.4036C14.0526 26.4086 13.8494 26.4137 13.6971 26.4137C13.6361 26.4137 13.5599 26.4137 13.4634 26.4036C13.372 26.3985 13.2806 26.3884 13.1841 26.3782C13.0876 26.3681 12.9962 26.363 12.9048 26.3478C12.8185 26.3377 12.7423 26.3225 12.6864 26.3123L12.9505 26.8446C13.0064 26.8345 13.0724 26.8244 13.1587 26.8142C13.2451 26.8041 13.3314 26.7939 13.4228 26.7889C13.5142 26.7838 13.6006 26.7737 13.6869 26.7686C13.7732 26.7635 13.8393 26.7584 13.8951 26.7534C13.9865 26.7483 14.1084 26.7432 14.2506 26.7382C14.3928 26.7382 14.5503 26.728 14.7179 26.723C14.8855 26.723 15.0632 26.7128 15.246 26.7077C15.4289 26.7077 15.6066 26.6976 15.7742 26.6925C15.9469 26.6925 16.1043 26.6875 16.2516 26.6875H16.6274H16.6376ZM15.6523 26.0892L15.759 25.6634C15.6574 25.6786 15.5508 25.6887 15.434 25.7039C15.3171 25.7192 15.2054 25.7293 15.0988 25.7394C14.9921 25.7496 14.8905 25.7597 14.7991 25.7597C14.7077 25.7648 14.6366 25.7648 14.5807 25.7648C14.5249 25.7648 14.4538 25.7648 14.3725 25.7546C14.2913 25.7496 14.2049 25.7394 14.1186 25.7293C14.0323 25.7192 13.951 25.7039 13.8697 25.6938C13.7936 25.6786 13.7275 25.6685 13.6717 25.6532L13.9459 26.1551C14.0018 26.1501 14.0627 26.145 14.1338 26.1399C14.2049 26.1349 14.276 26.1247 14.3421 26.1197C14.4081 26.1146 14.4741 26.1095 14.53 26.1045C14.5858 26.1045 14.6315 26.1045 14.662 26.1045C14.7179 26.1045 14.789 26.1045 14.8702 26.1045C14.9515 26.1045 15.0378 26.1045 15.1292 26.0994C15.2207 26.0994 15.3121 26.0994 15.3984 26.0994H15.6422L15.6523 26.0892ZM14.0475 27.8484C14.0475 27.9295 14.0678 28.0107 14.0983 28.0918C14.1338 28.1729 14.1846 28.2388 14.2506 28.2996C14.3167 28.3554 14.3878 28.4061 14.4741 28.4416C14.5604 28.4771 14.6468 28.4923 14.7483 28.4923C14.8499 28.4923 14.9312 28.4771 15.0175 28.4416C15.1038 28.4112 15.1749 28.3655 15.241 28.3047C15.307 28.2489 15.3578 28.178 15.3933 28.0968C15.4289 28.0157 15.4492 27.9346 15.4492 27.8434C15.4492 27.7521 15.4289 27.6761 15.3933 27.6C15.3578 27.5189 15.307 27.4479 15.246 27.3922C15.1851 27.3313 15.1089 27.2857 15.0277 27.2502C14.9413 27.2147 14.8499 27.1995 14.7534 27.1995C14.5554 27.1995 14.3878 27.2603 14.2557 27.382C14.1237 27.5037 14.0576 27.6558 14.0576 27.8484H14.0475ZM14.4335 28.8269C14.2811 28.8015 14.144 28.7559 14.017 28.6951C13.8901 28.6342 13.7783 28.5633 13.6869 28.4821C13.5955 28.401 13.5193 28.3098 13.4685 28.2084C13.4177 28.107 13.3923 28.0005 13.3923 27.889C13.3923 27.747 13.4279 27.6152 13.499 27.4936C13.5701 27.377 13.6666 27.2705 13.7885 27.1792C13.9104 27.093 14.0526 27.0221 14.2151 26.9714C14.3776 26.9257 14.5554 26.9004 14.7433 26.9004C14.9413 26.9004 15.1242 26.9257 15.2918 26.9815C15.4543 27.0373 15.5965 27.1083 15.7184 27.1995C15.8352 27.2908 15.9317 27.3972 15.9977 27.5138C16.0637 27.6355 16.0993 27.7572 16.0993 27.8789C16.0993 27.9955 16.0739 28.1019 16.0231 28.1982C15.9723 28.2996 15.9012 28.3909 15.8098 28.472C15.7184 28.5582 15.6066 28.6292 15.4797 28.6849C15.3527 28.7407 15.2156 28.7863 15.0683 28.8117V29.2173C15.4035 29.1868 15.7285 29.1463 16.0434 29.1007C16.3583 29.055 16.6528 29.0043 16.9372 28.9435V26.0791C16.9372 25.9422 16.8712 25.8307 16.7442 25.7445C16.6173 25.6583 16.404 25.5823 16.1043 25.5062L16.2262 25.2578C16.338 25.273 16.4548 25.2882 16.5868 25.3085C16.7138 25.3288 16.8458 25.3491 16.9728 25.3744C17.0997 25.3998 17.2267 25.42 17.3435 25.4454C17.4603 25.4657 17.5619 25.4859 17.6482 25.4961C17.6381 25.5366 17.6279 25.5873 17.6228 25.6431C17.6127 25.6989 17.6025 25.7597 17.5975 25.8205C17.5924 25.8814 17.5822 25.9321 17.5771 25.9828C17.5721 26.0335 17.5721 26.069 17.5721 26.0892V28.0462C17.765 28.0309 17.9834 28.0107 18.2272 27.9802C18.471 27.9498 18.6894 27.9194 18.8925 27.8839L18.8214 28.4112C18.7452 28.4112 18.6538 28.4061 18.5522 28.4061H17.5771V29.0246C17.5771 29.126 17.5771 29.2375 17.567 29.3541C17.5619 29.4707 17.5517 29.5873 17.5467 29.7039C17.5365 29.8205 17.5264 29.9321 17.5111 30.0335C17.4959 30.1399 17.4806 30.2261 17.4654 30.2971L17.0083 30.3782C16.9982 30.3225 16.9931 30.2515 16.988 30.1552C16.988 30.0588 16.9779 29.9574 16.9728 29.851C16.9677 29.7394 16.9626 29.633 16.9575 29.5265C16.9575 29.42 16.9575 29.3288 16.9575 29.2477V29.2325C16.6935 29.2933 16.4192 29.344 16.1399 29.3896C15.8606 29.4353 15.5863 29.4758 15.3171 29.5164C15.048 29.5569 14.7839 29.5873 14.535 29.6178C14.2862 29.6482 14.0526 29.6735 13.8443 29.6887C13.7936 29.6887 13.7275 29.6989 13.6361 29.7039C13.5498 29.709 13.4533 29.7192 13.3517 29.7293C13.2501 29.7394 13.1537 29.7496 13.0521 29.7648C12.9505 29.7749 12.8642 29.7851 12.788 29.8003L12.463 29.2477C12.5341 29.2629 12.6204 29.273 12.7169 29.2832C12.8134 29.2933 12.915 29.2984 13.0165 29.3085C13.1181 29.3136 13.2146 29.3186 13.306 29.3186C13.3974 29.3186 13.4736 29.3186 13.5345 29.3186C13.692 29.3085 13.8443 29.3034 13.9967 29.2984C14.1491 29.2882 14.3014 29.2832 14.4538 29.268V28.8117L14.4335 28.8269ZM10.2233 25.273L10.1065 25.5214C10.401 25.5924 10.6093 25.6735 10.7413 25.7597C10.8733 25.8459 10.9394 25.9574 10.9394 26.0943V30.2667C10.9394 30.3934 10.9394 30.5303 10.9394 30.6773C10.9394 30.8244 10.9444 30.9612 10.9546 31.0981C10.9597 31.235 10.9698 31.3617 10.9749 31.4783C10.98 31.6 10.9902 31.6913 11.0003 31.7622L11.4472 31.7014C11.4625 31.6051 11.4828 31.4733 11.4929 31.311C11.5031 31.1488 11.5183 30.9764 11.5285 30.799C11.5386 30.6216 11.5488 30.4391 11.5539 30.2616C11.559 30.0842 11.564 29.927 11.564 29.7851V26.1045C11.564 26.1045 11.564 26.0487 11.5691 25.998C11.5742 25.9524 11.5793 25.8966 11.5844 25.8358C11.5894 25.7749 11.5996 25.7141 11.6097 25.6583C11.6199 25.6026 11.6301 25.5519 11.6402 25.5113C11.5488 25.4961 11.4472 25.4809 11.3304 25.4606C11.2136 25.4403 11.0917 25.415 10.9597 25.3896C10.8327 25.3643 10.7007 25.344 10.5737 25.3237C10.4467 25.3034 10.3249 25.2882 10.2182 25.273H10.2233ZM8.64891 27.7775C8.89268 28.0259 9.16185 28.2794 9.45641 28.543C9.75097 28.8015 10.0557 29.05 10.3706 29.2832L9.88301 29.7597C9.65955 29.5012 9.43102 29.2223 9.19232 28.9384C8.95362 28.6494 8.70985 28.3655 8.461 28.0867C8.22738 28.4314 7.96329 28.7508 7.65349 29.0449C7.34878 29.344 6.99327 29.633 6.59714 29.9067L6.40415 29.7293C6.66824 29.5265 6.90694 29.2984 7.12532 29.055C7.3437 28.8117 7.53669 28.5582 7.70936 28.2946C7.88203 28.036 8.02424 27.7673 8.14612 27.5037C8.26801 27.235 8.3645 26.9714 8.43053 26.7179C8.45084 26.6469 8.461 26.6013 8.45592 26.5759C8.45084 26.5557 8.4356 26.5252 8.41529 26.4897C8.38482 26.4543 8.32895 26.4137 8.25277 26.3731C8.17659 26.3275 8.09026 26.2819 7.99376 26.2413L8.12073 26.0436C8.30356 26.0892 8.50163 26.1399 8.72001 26.2058C8.93839 26.2718 9.13138 26.3326 9.30913 26.3884C9.22279 26.6418 9.13138 26.8852 9.02473 27.1133C8.91807 27.3415 8.80126 27.5645 8.65906 27.7825L8.64891 27.7775ZM3.52965 30.292C3.7074 30.2819 3.86992 30.2768 4.0172 30.2718C4.16448 30.2718 4.28128 30.2616 4.37778 30.2616C4.67742 30.2464 4.97706 30.2261 5.28685 30.2008C5.59665 30.1704 5.8709 30.1399 6.10959 30.1045L6.02833 30.652C5.85058 30.6418 5.62204 30.6368 5.33764 30.6317C5.05324 30.6266 4.76375 30.6216 4.46412 30.6165C4.34223 30.6165 4.18987 30.6165 4.01212 30.6165C3.83437 30.6165 3.64138 30.6216 3.43315 30.6317C3.22493 30.6368 3.01671 30.6469 2.79833 30.652C2.58502 30.6571 2.3768 30.6672 2.18381 30.6723C1.98574 30.6773 1.81307 30.6875 1.65563 30.6976C1.4982 30.7077 1.37631 30.7128 1.28489 30.7179C1.1173 30.728 0.934468 30.7432 0.746559 30.7584C0.553571 30.7737 0.375819 30.7939 0.213302 30.8193L0 30.2363C0.198067 30.2565 0.411369 30.2768 0.634829 30.292C0.858288 30.3072 1.07159 30.3174 1.27474 30.3275C1.36107 30.3275 1.46265 30.3326 1.57945 30.3326H1.97559C2.11779 30.3326 2.27015 30.3326 2.42251 30.3326C2.57994 30.3326 2.73738 30.3275 2.89482 30.3225V28.7407C2.63581 28.7407 2.39711 28.7508 2.17365 28.7559C1.95019 28.761 1.75721 28.7711 1.58961 28.7762C1.43217 28.7863 1.32044 28.7458 1.24426 28.6647C1.16808 28.5785 1.13253 28.4771 1.13253 28.3503V26.8548C1.13253 26.7584 1.12746 26.6824 1.11222 26.6266C1.09698 26.5658 1.07159 26.5202 1.03096 26.4745C0.990333 26.434 0.934468 26.3985 0.858288 26.3681C0.782109 26.3377 0.680536 26.3072 0.553571 26.2718L0.6653 26.0385C0.85321 26.069 1.07667 26.0943 1.3306 26.1095C1.58961 26.1247 1.85878 26.1349 2.14318 26.1349C2.42758 26.1349 2.71707 26.1349 3.01163 26.1298C3.30619 26.1247 3.58551 26.1146 3.85976 26.0994C4.12893 26.0892 4.3727 26.069 4.586 26.0538C4.80438 26.0335 4.97706 26.0183 5.11418 25.9929L5.00753 26.505C4.73836 26.4948 4.45396 26.4796 4.15432 26.4745C3.85468 26.4695 3.5652 26.4644 3.27572 26.4695C2.98623 26.4695 2.71199 26.4745 2.45298 26.4796C2.18889 26.4847 1.96035 26.4948 1.75721 26.51V28.2185C1.75721 28.3047 1.77244 28.3554 1.79783 28.3757C1.82323 28.396 1.88925 28.4112 1.99082 28.4112C2.10255 28.4112 2.23968 28.4112 2.39711 28.4112C2.55455 28.4112 2.7323 28.4061 2.92021 28.396C3.10812 28.3909 3.30111 28.3808 3.50425 28.3706C3.7074 28.3605 3.90547 28.3453 4.10353 28.3301C4.3016 28.3148 4.48951 28.2996 4.66726 28.2794C4.84501 28.2641 5.00245 28.2439 5.14465 28.2287L5.04308 28.7559C4.81454 28.7458 4.57077 28.7407 4.31176 28.7356C4.05275 28.7356 3.78358 28.7356 3.51949 28.7356V30.292H3.52965Z" fill="black"/>
</g>
<defs>
<clipPath id="clip0_147_426">
<rect width="114" height="32" fill="white" transform="translate(0 0.5)"/>
</clipPath>
</defs>
</svg>
