<svg width="19" height="22" viewBox="0 0 19 22" fill="none" xmlns="http://www.w3.org/2000/svg">
<path id="Vector" d="M19.0014 6.94841C18.3764 7.11519 17.7667 7.27748 17.1489 7.44246C17.1166 7.33486 17.0879 7.23623 17.0574 7.1394C16.8216 6.38173 16.5087 5.65993 16.0729 4.99462C15.4237 4.00382 14.5674 3.24885 13.4995 2.73507C12.7759 2.38627 12.0111 2.17377 11.2185 2.05631C10.5621 1.95857 9.90129 1.9245 9.23866 1.95409C8.29898 1.99623 7.37992 2.15046 6.49672 2.4858C5.08809 3.0202 4.01391 3.94554 3.26341 5.25016C2.82316 6.015 2.52727 6.83543 2.32821 7.69083C2.05832 8.84661 1.95162 10.0212 1.96866 11.2057C1.9839 12.339 2.10405 13.4625 2.39008 14.5627C2.62052 15.4486 2.95497 16.2915 3.4535 17.0644C4.24703 18.2946 5.34812 19.1294 6.72895 19.601C7.25528 19.7803 7.79686 19.8978 8.3483 19.9704C8.97146 20.0529 9.59643 20.0753 10.2232 20.0466C10.9755 20.0125 11.7179 19.9148 12.4388 19.6889C13.5991 19.3257 14.563 18.6703 15.3161 17.7171C15.8021 17.1029 16.0855 16.3991 16.1563 15.6163C16.2244 14.8613 16.1052 14.1404 15.7277 13.4742C15.4255 12.9416 14.988 12.5408 14.4733 12.2189C14.4616 12.2117 14.4482 12.2072 14.424 12.1965C14.4051 12.313 14.3881 12.4242 14.3684 12.5345C14.2608 13.1505 14.0931 13.7477 13.816 14.3108C13.4126 15.1303 12.836 15.7893 12.0254 16.2296C11.5995 16.4609 11.1458 16.6098 10.6697 16.6959C10.2483 16.7721 9.82238 16.8026 9.39468 16.7801C8.52224 16.7335 7.7045 16.5049 6.97732 16.0072C6.16227 15.4495 5.64042 14.6883 5.49786 13.7073C5.28625 12.2575 5.78478 11.0936 6.98898 10.2472C7.55656 9.84816 8.19676 9.61773 8.87373 9.48413C9.60091 9.34066 10.3362 9.32721 11.0741 9.35052C11.5296 9.36487 11.9833 9.40612 12.4334 9.47875C12.4612 9.48323 12.489 9.48323 12.5311 9.48682C12.5258 9.44736 12.5222 9.41419 12.5159 9.38101C12.4558 9.05463 12.3626 8.73901 12.22 8.43774C11.925 7.81278 11.4462 7.39584 10.7818 7.21023C10.0564 7.00759 9.32654 7.0058 8.60563 7.2443C8.07571 7.41915 7.6507 7.74105 7.32612 8.19565C7.30998 8.21896 7.29294 8.24137 7.26784 8.27545C6.7424 7.91499 6.21876 7.55634 5.69243 7.19499C5.83858 6.96634 5.99998 6.7637 6.17841 6.57451C6.876 5.83477 7.73409 5.39004 8.73116 5.2143C9.6027 5.06097 10.4689 5.09683 11.3198 5.34431C12.4747 5.68055 13.3229 6.3907 13.8698 7.46219C14.1693 8.0477 14.3415 8.67266 14.4329 9.32094C14.4634 9.53523 14.4823 9.75222 14.4984 9.96831C14.5038 10.0436 14.5325 10.0786 14.5997 10.1082C15.2883 10.4131 15.916 10.8112 16.4612 11.3348C17.2161 12.0602 17.7165 12.9317 17.9317 13.9557C18.3316 15.8575 17.9173 17.5755 16.6844 19.0747C15.5977 20.3954 14.207 21.2553 12.5446 21.6722C11.8694 21.8417 11.1835 21.9323 10.4895 21.9753C9.94164 22.0094 9.39468 22.0085 8.84773 21.9708C7.5996 21.8829 6.39181 21.6274 5.25128 21.0975C3.91886 20.4788 2.84378 19.557 2.0108 18.3502C1.3679 17.4185 0.924959 16.3946 0.619203 15.3087C0.395938 14.5161 0.250681 13.7091 0.166397 12.8905C0.0910783 12.166 0.0498326 11.4379 0.0659722 10.708C0.0803186 10.0535 0.124254 9.40074 0.207642 8.75156C0.316137 7.91051 0.485603 7.08291 0.744734 6.27503C1.0209 5.41425 1.39032 4.59651 1.88616 3.83884C2.87875 2.32082 4.22551 1.24664 5.93004 0.623467C6.62135 0.370612 7.33329 0.206526 8.06137 0.110585C8.76165 0.0191269 9.46462 -0.0203255 10.1703 0.0101605C11.3252 0.059476 12.454 0.243289 13.5426 0.644986C14.9593 1.16773 16.1536 2.0061 17.1121 3.17443C17.885 4.1159 18.432 5.17843 18.8113 6.33062C18.8767 6.52968 18.935 6.73052 19.0014 6.94841ZM12.5832 11.4917C12.5491 11.4819 12.5258 11.4738 12.5016 11.4693C12.0864 11.3814 11.6668 11.3294 11.2445 11.3034C10.7325 11.2711 10.2205 11.2747 9.70851 11.3214C9.36061 11.3527 9.01809 11.4155 8.68812 11.533C8.33126 11.6594 8.00847 11.8396 7.74934 12.123C7.19162 12.7318 7.2239 13.6607 7.82465 14.2256C8.09813 14.4829 8.4272 14.6372 8.78586 14.734C9.32923 14.8801 9.87618 14.8775 10.4249 14.7716C10.8257 14.6945 11.1916 14.534 11.5036 14.265C11.8004 14.0095 12.0111 13.6912 12.1689 13.3352C12.3868 12.8421 12.4926 12.3211 12.5545 11.7894C12.5661 11.6917 12.5733 11.593 12.5832 11.4926V11.4917Z" fill="#625C5C"/>
</svg>
